#!OML:ASF G:\ViconDB\ViconDB\414\test\team2\shane.ASF
:FULLY-SPECIFIED
:DEGREES
278
root 1.00334 16.8921 28.9402 -11.9068 2.80167 -6.74983
lowerback 8.37916 -2.1572 -0.70513
upperback 3.04838 -2.86017 3.31425
thorax -1.32933 -1.45176 4.09127
lowerneck -20.6 -1.53101 -7.12398
upperneck 26.4048 -1.65882 6.36953
head 12.2544 -0.616984 3.35824
rclavicle 5.65294e-015 -3.37934e-015
rhumerus -52.226 -3.13839 -70.7157
rradius 32.1421
rwrist 42.0465
rhand -26.6584 -6.99948
rfingers 7.12502
rthumb -0.0901436 -36.9792
lclavicle 5.65294e-015 -3.37934e-015
lhumerus -25.3827 -14.3238 95.1708
lradius 57.8898
lwrist -18.898
lhand -48.2663 8.94515
lfingers 7.12502
lthumb -20.9243 37.8366
rfemur -15.5045 -18.9023 19.6878
rtibia 44.4603
rfoot -16.9378 1.29501
rtoes -12.1595
lfemur 26.0685 4.66012 -6.88806
ltibia 5.2234
lfoot -21.8774 -13.3344
ltoes -8.7209
279
root 1.02536 16.8551 29.1384 -11.3819 3.34435 -6.21922
lowerback 8.28021 -2.45515 -0.811254
upperback 2.68604 -3.26137 3.15595
thorax -1.6229 -1.6437 4.02791
lowerneck -20.5708 -1.27237 -7.03596
upperneck 26.3482 -1.23526 6.0999
head 12.1881 -0.454656 3.30592
rclavicle 2.66744e-014 -1.61016e-014
rhumerus -53.7799 -4.14059 -68.2066
rradius 31.2997
rwrist 42.6348
rhand -26.2719 -7.09767
rfingers 7.12502
rthumb 0.28318 -37.0772
lclavicle 2.66744e-014 -1.61016e-014
lhumerus -25.31 -15.297 95.5732
lradius 61.1888
lwrist -18.3098
lhand -48.4341 8.59789
lfingers 7.12502
lthumb -21.0855 37.4715
rfemur -16.6137 -19.1086 19.3085
rtibia 41.2931
rfoot -17.6858 2.61231
rtoes -11.6351
lfemur 28.6151 4.31913 -7.68778
ltibia -9.54166e-015
lfoot -19.5132 -13.6411
ltoes -9.03079
280
root 0.9731 16.8328 29.3748 -11.4187 4.03054 -6.7483
lowerback 8.22955 -2.8493 -1.31801
upperback 2.63444 -3.81834 3.65191
thorax -1.53697 -1.92831 4.87853
lowerneck -20.7369 -0.977187 -7.14706
upperneck 26.3382 -0.682604 5.84851
head 12.1722 -0.250886 3.31866
rclavicle 2.07481e-015 1.59028e-014
rhumerus -55.0549 -4.09955 -66.2907
rradius 30.5042
rwrist 41.9734
rhand -26.0855 -7.34677
rfingers 7.12502
rthumb 0.46313 -37.326
lclavicle 2.07481e-015 1.59028e-014
lhumerus -25.1383 -16.3089 95.9307
lradius 64.3431
lwrist -18.0485
lhand -48.6212 9.09548
lfingers 7.12502
lthumb -21.2652 37.9489
rfemur -16.9187 -18.2793 20.1087
rtibia 38.3063
rfoot -18.8661 2.63779
rtoes -12.0044
lfemur 29.2246 3.34069 -7.01825
ltibia -2.22639e-014
lfoot -20.091 -13.732
ltoes -9.20535
281
root 1.00987 16.8067 29.5493 -10.824 4.97662 -6.10154
lowerback 8.66529 -3.24671 -1.19132
upperback 2.03775 -4.32647 3.35991
thorax -2.38188 -2.15614 4.60308
lowerneck -20.4216 -0.667828 -6.77045
upperneck 26.127 -0.223842 5.30722
head 11.9893 -0.0794532 3.11046
rclavicle 3.19546e-014 -3.81667e-014
rhumerus -56.8754 -4.64816 -64.0506
rradius 29.9755
rwrist 42.4545
rhand -25.8277 -7.5364
rfingers 7.12502
rthumb 0.71218 -37.515
lclavicle 3.19546e-014 -3.81667e-014
lhumerus -25.2944 -17.4711 96.1405
lradius 67.3238
lwrist -17.9717
lhand -48.5621 8.78237
lfingers 7.12502
lthumb -21.2084 37.6422
rfemur -18.1674 -19.1647 19.4588
rtibia 35.7692
rfoot -19.8233 4.34215
rtoes -13.1129
lfemur 29.1213 2.6625 -8.02237
ltibia -3.49861e-014
lfoot -20.5896 -13.6888
ltoes -9.54036
282
root 0.99584 16.769 29.7558 -10.7124 5.67797 -6.00273
lowerback 8.594 -3.50741 -1.53324
upperback 2.11906 -4.70117 3.57414
thorax -2.17898 -2.34892 5.04444
lowerneck -20.7799 -0.523371 -7.05509
upperneck 25.875 0.156426 5.16851
head 11.9351 0.0509472 3.163
rclavicle 2.49972e-014 -1.94809e-014
rhumerus -57.9739 -4.84631 -62.0511
rradius 29.6911
rwrist 42.0922
rhand -25.6837 -7.64818
rfingers 7.12502
rthumb 0.851243 -37.6262
lclavicle 2.49972e-014 -1.94809e-014
lhumerus -24.5664 -18.6415 96.3144
lradius 70.0327
lwrist -17.8414
lhand -48.4043 8.58401
lfingers 7.12502
lthumb -21.0568 37.4608
rfemur -18.7499 -19.0196 19.3649
rtibia 33.5953
rfoot -20.8607 5.54217
rtoes -12.653
lfemur 29.6023 1.91978 -8.20256
ltibia -2.8625e-014
lfoot -21.1413 -13.5637
ltoes -10.0164
283
root 0.972345 16.7223 29.9561 -10.8461 6.22333 -5.6625
lowerback 9.06578 -3.58251 -1.99013
upperback 2.10348 -4.84129 3.57783
thorax -2.40328 -2.41226 5.35674
lowerneck -20.7672 -0.393903 -7.09426
upperneck 25.5536 0.406096 5.01644
head 11.7902 0.144793 3.14146
rclavicle 8.5378e-014 -2.26615e-014
rhumerus -59.4892 -5.51518 -59.7803
rradius 29.1477
rwrist 42.7701
rhand -26.1119 -7.61842
rfingers 7.12502
rthumb 0.437714 -37.5977
lclavicle 8.5378e-014 -2.26615e-014
lhumerus -24.0451 -20.0755 96.3517
lradius 72.3335
lwrist -17.9094
lhand -48.3544 8.12115
lfingers 7.12502
lthumb -21.0089 37.0032
rfemur -19.0902 -18.6753 19.0109
rtibia 31.9959
rfoot -22.0712 6.26144
rtoes -13.0363
lfemur 30.3895 1.30937 -8.56747
ltibia 7.31528e-014
lfoot -21.6759 -13.3844
ltoes -10.4914
